<?xml version="1.0" encoding="UTF-8"?>
<svg width="7px" height="9px" viewBox="0 0 7 9" version="1.1" xmlns="http://www.w3.org/2000/svg" xmlns:xlink="http://www.w3.org/1999/xlink">
    <!-- Generator: Sketch 53.2 (72643) - https://sketchapp.com -->
    <title>Combined Shape</title>
    <desc>Created with Sketch.</desc>
    <g id="Page-1" stroke="none" stroke-width="1" fill="none" fill-rule="evenodd">
        <g id="Statistics" transform="translate(-184.000000, -60.000000)" fill="#FFAD4A" fill-rule="nonzero">
            <g id="Data-Copy" transform="translate(0.000000, 1.000000)">
                <g id="Group-125" transform="translate(76.060870, 41.551020)">
                    <path d="M111.410772,18.4020259 C111.488716,18.4562727 111.53973,18.5465186 111.53973,18.6486796 L111.53973,25.6486796 C111.53973,25.8145307 111.405282,25.9489796 111.23943,25.9489796 C111.073579,25.9489796 110.93913,25.8145307 110.93913,25.6486796 L110.93913,18.873668 L108.651475,21.1613238 C108.5342,21.2785982 108.344061,21.2785982 108.226786,21.1613238 C108.109512,21.0440493 108.109512,20.8539099 108.226786,20.7366354 L111.226786,17.7366354 C111.344061,17.619361 111.5342,17.619361 111.651475,17.7366354 L114.651475,20.7366354 C114.768749,20.8539099 114.768749,21.0440493 114.651475,21.1613238 C114.5342,21.2785982 114.344061,21.2785982 114.226786,21.1613238 L111.43913,18.373668 L111.410772,18.4020259 Z" id="Combined-Shape"></path>
                </g>
            </g>
        </g>
    </g>
</svg>