<?xml version="1.0" encoding="UTF-8"?>
<svg width="32px" height="32px" viewBox="0 0 32 32" version="1.1" xmlns="http://www.w3.org/2000/svg" xmlns:xlink="http://www.w3.org/1999/xlink">
    <!-- Generator: Sketch 53.2 (72643) - https://sketchapp.com -->
    <title>Artboard</title>
    <desc>Created with Sketch.</desc>
    <g id="Artboard" stroke="none" stroke-width="1" fill="none" fill-rule="evenodd">
        <path d="M16,6 C7.081703,6 1.32098813,15.21118 1.21679688,15.378906 C1.07655339,15.5555626 1.00015162,15.7744434 1,16 C1.0001774,16.1934991 1.05649,16.3827909 1.16210938,16.544922 C1.16340458,16.5468796 1.16470667,16.5488326 1.16601562,16.550781 C1.18320928,16.586261 6.0188313,26 16,26 C25.938822,26 30.767326,16.678741 30.826172,16.564453 C30.8301524,16.5579874 30.8340589,16.5514766 30.837891,16.544922 C30.9435102,16.3827909 30.9998227,16.1934991 31,16 C30.9999647,15.7753458 30.9242839,15.5572476 30.785156,15.380859 C30.7845059,15.3802071 30.7838549,15.3795561 30.783203,15.378906 C30.679012,15.21118 24.918297,6 16,6 Z M16,9 C19.866,9 23,12.134 23,16 C23,19.866 19.866,23 16,23 C12.134,23 9,19.866 9,16 C9,12.134 12.134,9 16,9 Z M16,13 C14.3431458,13 13,14.3431458 13,16 C13,17.6568542 14.3431458,19 16,19 C17.6568542,19 19,17.6568542 19,16 C19,14.3431458 17.6568542,13 16,13 Z" id="Shape" fill="#000000" fill-rule="nonzero"></path>
    </g>
</svg>