<?xml version="1.0" encoding="UTF-8"?>
<svg width="32px" height="32px" viewBox="0 0 32 32" version="1.1" xmlns="http://www.w3.org/2000/svg" xmlns:xlink="http://www.w3.org/1999/xlink">
    <!-- Generator: Sketch 53.2 (72643) - https://sketchapp.com -->
    <title>Artboard</title>
    <desc>Created with Sketch.</desc>
    <g id="Artboard" stroke="none" stroke-width="1" fill="none" fill-rule="evenodd">
        <path d="M2.7070312,1.29296875 L1.29296875,2.7070312 L29.292969,30.707031 L30.707031,29.292969 L24.681641,23.267578 C28.777456,20.49434 30.799165,16.616636 30.826172,16.564453 C30.9396226,16.3980943 31.0002083,16.2013609 31,16 C30.9998483,15.7744434 30.9234465,15.5555626 30.783203,15.378906 C30.679012,15.21118 24.918297,6 16,6 C13.469857,6 11.199331,6.7501922 9.234375,7.8203125 L2.7070312,1.29296875 Z M16,9 C19.866,9 23,12.134 23,16 C23,17.571956 22.470043,19.012848 21.59375,20.179688 L18.701172,17.287109 C18.889655,16.897819 19,16.462846 19,16 C19,14.343 17.657,13 16,13 C15.537154,13 15.102181,13.110345 14.712891,13.298828 L11.820312,10.40625 C12.987152,9.5299565 14.428044,9 16,9 Z M5.9511719,10.0761719 C2.9791583,12.576125 1.27498083,15.287031 1.21875,15.376953 C1.07738903,15.5538751 1.00026544,15.7735397 1,16 C1.0001774,16.1934991 1.05649,16.3827909 1.16210938,16.544922 C1.16340458,16.5468796 1.16470667,16.5488326 1.16601562,16.550781 C1.18320928,16.586261 6.0188313,26 16,26 C17.85,26 19.520531,25.673484 21.019531,25.146484 L18.431641,22.556641 C17.672641,22.838641 16.856,23 16,23 C12.134,23 9,19.866 9,16 C9,15.144 9.1613594,14.327359 9.4433594,13.568359 L5.9511719,10.0761719 Z" id="Shape" fill="#000000" fill-rule="nonzero"></path>
    </g>
</svg>