<svg viewBox="0 0 176 40" xmlns="http://www.w3.org/2000/svg" xmlns:xlink="http://www.w3.org/1999/xlink"><defs><path id="a" d="M.336.169h9.401v9.545H.336z"/><path id="c" d="M.306.169h9.355v9.545H.306z"/><path id="e" d="M.018.138h9.974v7.29H.018z"/></defs><g fill="none" fill-rule="evenodd"><path d="M58.228 24.678c.702-.745 1.053-1.703 1.053-2.875v-.775h-.541c-1.565 0-2.768.07-3.61.209-.842.139-1.444.372-1.805.7-.36.328-.541.8-.541 1.415 0 .715.26 1.301.782 1.758.521.457 1.173.685 1.955.685 1.103 0 2.005-.372 2.707-1.117M60.8 14.383c.952.974 1.43 2.454 1.43 4.44v7.717c0 .457-.131.81-.392 1.058-.26.248-.622.372-1.082.372-.442 0-.793-.129-1.054-.387-.26-.258-.39-.606-.39-1.043v-1.102c-.382.834-.949 1.475-1.7 1.921-.752.447-1.63.67-2.632.67-.963 0-1.846-.193-2.648-.58-.802-.388-1.428-.928-1.88-1.624a4.18 4.18 0 0 1-.676-2.324c0-1.052.275-1.882.827-2.488.55-.606 1.464-1.038 2.737-1.296 1.273-.258 3.023-.387 5.25-.387h.691v-.865c0-1.112-.23-1.916-.692-2.413-.461-.496-1.203-.745-2.226-.745-.702 0-1.364.09-1.985.268-.622.18-1.304.438-2.046.775-.541.298-.922.447-1.143.447a.933.933 0 0 1-.737-.328c-.19-.218-.286-.496-.286-.834 0-.298.085-.561.256-.79.17-.228.446-.451.827-.67.702-.377 1.524-.68 2.467-.909a11.629 11.629 0 0 1 2.738-.343c1.945 0 3.393.488 4.346 1.46m5.67 12.395c-.36-.218-.616-.446-.767-.685a1.48 1.48 0 0 1-.225-.804c0-.318.09-.586.27-.805a.858.858 0 0 1 .692-.328c.26 0 .672.16 1.234.477.601.318 1.188.576 1.76.775.571.198 1.288.298 2.15.298.962 0 1.715-.169 2.256-.507.542-.337.813-.814.813-1.43 0-.397-.106-.715-.317-.953-.21-.239-.576-.452-1.097-.641-.522-.189-1.294-.392-2.317-.61-1.764-.378-3.033-.89-3.805-1.535-.772-.645-1.158-1.525-1.158-2.637 0-.854.25-1.624.752-2.31.501-.685 1.193-1.215 2.076-1.593.882-.377 1.884-.566 3.008-.566.801 0 1.584.104 2.346.313a6.672 6.672 0 0 1 2.016.908c.661.437.992.944.992 1.52 0 .317-.095.586-.285.804-.191.22-.417.328-.677.328-.18 0-.361-.04-.542-.12a7.08 7.08 0 0 1-.722-.387 10.102 10.102 0 0 0-1.519-.744c-.471-.179-1.058-.268-1.76-.268-.842 0-1.519.178-2.03.536-.512.358-.768.844-.768 1.46 0 .556.236.988.708 1.296.47.308 1.358.601 2.662.879 1.343.278 2.396.596 3.159.953.762.358 1.308.8 1.64 1.326.33.526.495 1.197.495 2.012 0 1.29-.546 2.328-1.64 3.113-1.092.785-2.551 1.177-4.376 1.177-2.045 0-3.72-.417-5.024-1.252m14.5 0c-.361-.218-.617-.446-.768-.685a1.48 1.48 0 0 1-.225-.804c0-.318.09-.586.27-.805a.857.857 0 0 1 .692-.328c.26 0 .672.16 1.234.477a12.74 12.74 0 0 0 1.76.775c.571.198 1.288.298 2.15.298.963 0 1.715-.169 2.256-.507.542-.337.813-.814.813-1.43 0-.397-.106-.715-.316-.953-.21-.239-.577-.452-1.098-.641-.522-.189-1.293-.392-2.317-.61-1.764-.378-3.033-.89-3.805-1.535-.772-.645-1.158-1.525-1.158-2.637 0-.854.25-1.624.752-2.31.501-.685 1.193-1.215 2.076-1.593.882-.377 1.885-.566 3.008-.566.802 0 1.584.104 2.346.313a6.669 6.669 0 0 1 2.016.908c.661.437.993.944.993 1.52 0 .317-.096.586-.286.804-.191.22-.416.328-.677.328-.18 0-.36-.04-.541-.12a7.019 7.019 0 0 1-.723-.387 10.102 10.102 0 0 0-1.519-.744c-.471-.179-1.058-.268-1.76-.268-.842 0-1.519.178-2.03.536-.511.358-.767.844-.767 1.46 0 .556.236.988.707 1.296.47.308 1.358.601 2.662.879 1.344.278 2.396.596 3.159.953.762.358 1.308.8 1.639 1.326.33.526.496 1.197.496 2.012 0 1.29-.546 2.328-1.639 3.113-1.093.785-2.552 1.177-4.377 1.177-2.046 0-3.72-.417-5.023-1.252m17.868-10.547c-.702.735-1.123 1.768-1.264 3.098h7.762c-.06-1.35-.406-2.388-1.038-3.113-.632-.725-1.52-1.087-2.662-1.087-1.164 0-2.096.367-2.798 1.102m8.723 8.253c.181.219.271.497.271.834 0 .577-.36 1.063-1.083 1.46a9.573 9.573 0 0 1-2.3.924 9.4 9.4 0 0 1-2.392.328c-2.327 0-4.162-.67-5.505-2.012-1.344-1.34-2.016-3.173-2.016-5.497 0-1.49.296-2.81.888-3.963.591-1.151 1.423-2.045 2.497-2.681 1.072-.635 2.29-.953 3.654-.953 1.966 0 3.52.625 4.663 1.877 1.143 1.251 1.715 2.94 1.715 5.065 0 .795-.362 1.192-1.083 1.192h-9.296c.2 3.079 1.695 4.618 4.483 4.618.742 0 1.383-.1 1.925-.298a13.965 13.965 0 0 0 1.715-.775c.06-.04.225-.123.496-.253.27-.129.496-.194.677-.194.28 0 .511.11.691.328m25.509-5.691v7.747c0 .457-.14.81-.42 1.058-.282.248-.653.372-1.113.372-.442 0-.803-.124-1.083-.372-.282-.248-.421-.6-.421-1.058v-7.717c0-1.211-.222-2.09-.662-2.637-.442-.546-1.134-.819-2.076-.819-1.103 0-1.976.372-2.617 1.117-.642.745-.963 1.763-.963 3.054v7.002c0 .457-.14.81-.421 1.058-.281.248-.652.372-1.113.372-.442 0-.802-.124-1.083-.372-.281-.248-.421-.6-.421-1.058v-7.717c0-1.211-.22-2.09-.662-2.637-.441-.546-1.133-.819-2.076-.819-1.103 0-1.98.372-2.632 1.117-.651.745-.977 1.763-.977 3.054v7.002c0 .457-.14.81-.422 1.058-.28.248-.641.372-1.083.372-.44 0-.807-.124-1.098-.372-.29-.248-.436-.6-.436-1.058V14.413c0-.436.151-.784.451-1.043a1.61 1.61 0 0 1 1.083-.386c.422 0 .768.124 1.039.372.27.248.406.591.406 1.028v1.102c.44-.834 1.053-1.47 1.834-1.907.783-.437 1.685-.655 2.708-.655 1.123 0 2.05.228 2.782.685.732.457 1.279 1.162 1.64 2.115a4.99 4.99 0 0 1 1.955-2.04c.862-.507 1.845-.76 2.948-.76 3.29 0 4.934 1.956 4.934 5.87m14.364 5.482c.731-.914 1.097-2.195 1.097-3.844 0-1.628-.36-2.885-1.083-3.769-.721-.884-1.744-1.326-3.068-1.326-1.323 0-2.342.447-3.053 1.34-.712.895-1.068 2.166-1.068 3.815s.356 2.92 1.068 3.813c.711.894 1.73 1.34 3.053 1.34 1.304 0 2.321-.456 3.054-1.37m1.067-10.428c.982.616 1.75 1.49 2.302 2.622.55 1.132.827 2.454.827 3.963 0 1.49-.276 2.811-.827 3.963-.552 1.152-1.324 2.046-2.316 2.681-.994.636-2.122.954-3.385.954-1.103 0-2.075-.233-2.917-.7a4.623 4.623 0 0 1-1.926-2.011v1.192c0 .436-.135.789-.406 1.057-.271.268-.637.402-1.098.402-.461 0-.832-.134-1.113-.402s-.421-.62-.421-1.057V8.097c0-.437.145-.785.436-1.043.29-.258.666-.387 1.128-.387.44 0 .797.124 1.068.372.27.249.406.581.406.998v7.628a4.722 4.722 0 0 1 1.926-2.026c.842-.477 1.814-.715 2.917-.715 1.284 0 2.417.308 3.399.923m6.934 13.766c-.291-.239-.436-.596-.436-1.073V8.126c0-.476.145-.838.436-1.087.29-.248.657-.373 1.098-.373.44 0 .802.125 1.083.373.28.249.421.61.421 1.087V26.54c0 .477-.14.834-.421 1.073-.281.238-.642.357-1.083.357-.441 0-.808-.119-1.098-.357m17.808-14.391c.23-.14.476-.209.737-.209.38 0 .716.13 1.007.387.291.259.437.567.437.924 0 .199-.04.387-.12.566l-8.363 17.58c-.12.277-.296.491-.527.64-.23.149-.476.224-.736.224-.362 0-.688-.12-.978-.358a1.11 1.11 0 0 1-.437-.894c0-.16.05-.358.151-.596l2.075-4.38-5.805-12.216a1.17 1.17 0 0 1-.12-.536c0-.377.16-.695.48-.954a1.69 1.69 0 0 1 1.084-.387c.601 0 1.033.278 1.293.834l4.663 10.25 4.633-10.22c.12-.298.295-.516.526-.655" fill="#010101"/><path d="M31.946 40H8.413C3.786 40 0 36.233 0 31.629V8.37C0 3.767 3.786 0 8.413 0h23.533c4.627 0 8.412 3.767 8.412 8.371v23.257c0 4.605-3.785 8.372-8.412 8.372" fill="#FFF"/><g transform="translate(.575 30.286)"><mask id="b" fill="#fff"><use xlink:href="#a"/></mask><path d="M8.708 4.257c-.14-.452-.3-.905-.498-1.378-.244-.484-.488-.967-.895-1.452-.244-.242-.488-.483-.895-.726a1.745 1.745 0 0 0-.385-.2A3.211 3.211 0 0 0 4.63.169c-.933 0-1.767.399-2.355 1.027a7.935 7.935 0 0 0-.33.312c-.408.484-.652.968-.896 1.452-.307.73-.52 1.46-.713 2.156a8.45 8.45 0 0 0 6.583 4.547c.27.03.543.046.82.049l.098.002h1.9a32.543 32.543 0 0 0-.632-4.012c-.125-.496-.25-.97-.397-1.445" fill="#531CAD" mask="url(#b)"/></g><path d="M5.198 29.905c1.671.272 3.095-1.14 2.821-2.796a2.43 2.43 0 0 0-1.994-1.976c-1.67-.272-3.094 1.14-2.82 2.796a2.43 2.43 0 0 0 1.993 1.976m5.71-10.417c-1.671-.272-3.095 1.14-2.821 2.795a2.428 2.428 0 0 0 1.994 1.976c1.67.272 3.094-1.14 2.82-2.795a2.428 2.428 0 0 0-1.993-1.976m23.585 10.417c1.67.272 3.095-1.14 2.82-2.796a2.43 2.43 0 0 0-1.994-1.976c-1.67-.272-3.094 1.14-2.82 2.796a2.428 2.428 0 0 0 1.994 1.976m-2.062-7.622c.275-1.656-1.15-3.067-2.82-2.795a2.428 2.428 0 0 0-1.994 1.976c-.274 1.656 1.15 3.067 2.82 2.795a2.43 2.43 0 0 0 1.994-1.976" fill="#531CAD"/><g transform="translate(29.908 30.286)"><mask id="d" fill="#fff"><use xlink:href="#c"/></mask><path d="M8.985 2.879c-.244-.484-.488-.968-.895-1.452-.244-.242-.488-.484-.895-.726a1.745 1.745 0 0 0-.386-.2A3.215 3.215 0 0 0 5.405.169c-.933 0-1.766.4-2.355 1.026a7.56 7.56 0 0 0-.33.313c-.408.484-.652.967-.896 1.451-.178.426-.325.85-.454 1.27-.166.533-.304 1.056-.44 1.553a32.484 32.484 0 0 0-.624 3.932h1.731c.087 0 .173-.004.259-.006a8.45 8.45 0 0 0 7.366-4.84 16.005 16.005 0 0 0-.677-1.99" fill="#531CAD" mask="url(#d)"/></g><path d="M25.175 28.722c-.274 1.656 1.15 3.068 2.821 2.796a2.43 2.43 0 0 0 1.994-1.976c.274-1.656-1.15-3.067-2.821-2.796a2.43 2.43 0 0 0-1.994 1.976m.746-4.826c.274-1.655-1.15-3.067-2.82-2.795a2.429 2.429 0 0 0-1.994 1.976c-.275 1.656 1.15 3.067 2.82 2.795a2.43 2.43 0 0 0 1.994-1.976m-13.399 7.622c1.67.272 3.095-1.14 2.82-2.796a2.428 2.428 0 0 0-1.993-1.976c-1.67-.272-3.095 1.14-2.82 2.796a2.428 2.428 0 0 0 1.993 1.976M17.418 21.1c-1.671-.271-3.095 1.14-2.821 2.796a2.429 2.429 0 0 0 1.994 1.977c1.67.271 3.094-1.14 2.82-2.796a2.428 2.428 0 0 0-1.993-1.976" fill="#02CDBD"/><g transform="translate(7.477 32.571)"><mask id="f" fill="#fff"><use xlink:href="#e"/></mask><path d="M9.309 3.82v-.005c-.004-.012-.01-.024-.013-.035a9.48 9.48 0 0 0-.318-.872 7.905 7.905 0 0 0-.265-.493 5.207 5.207 0 0 0-.65-.934c-.245-.243-.489-.566-.896-.807-.38-.301-.971-.456-1.511-.476a3.457 3.457 0 0 0-.605-.06c-.565 0-1.091.146-1.563.384a3.96 3.96 0 0 0-.47.232c-.408.243-.652.565-.896.807a4.51 4.51 0 0 0-.316.41c-.29.424-.476.836-.66 1.203C.738 4.142.493 5.19.25 6.158c-.085.406-.162.812-.232 1.22.269.029.543.045.819.048.033 0 .065.003.099.003h6.876l.853-.002.066.002h1.261a21.437 21.437 0 0 0-.42-2.654 18.284 18.284 0 0 0-.263-.956" fill="#02CDBD" mask="url(#f)"/></g><path d="M32.458 37.346a19.49 19.49 0 0 0-.265-.958l.002-.001-.014-.036a9.48 9.48 0 0 0-.318-.872 7.912 7.912 0 0 0-.264-.492 5.178 5.178 0 0 0-.651-.935c-.244-.242-.489-.565-.895-.807-.38-.301-.971-.456-1.512-.475a3.457 3.457 0 0 0-.604-.06c-.566 0-1.092.146-1.564.384-.171.072-.333.15-.47.232-.407.242-.652.565-.896.807a4.617 4.617 0 0 0-.315.41c-.29.423-.477.836-.661 1.203-.407.968-.651 2.016-.895 2.984-.085.405-.162.812-.233 1.219.269.03.543.045.82.049l.098.002h6.876l.853-.002.066.002h1.261a21.543 21.543 0 0 0-.419-2.654" fill="#02CDBD"/><path d="M19.846 33.13c1.67.273 3.094-1.139 2.82-2.795a2.428 2.428 0 0 0-1.994-1.976c-1.67-.272-3.094 1.14-2.82 2.796a2.43 2.43 0 0 0 1.994 1.976m4.564 4.55a4.167 4.167 0 0 0-.653-1.286 6.097 6.097 0 0 0-.325-.408 3.45 3.45 0 0 0-.976-.886 3.64 3.64 0 0 0-1.43-.46 3.73 3.73 0 0 0-.767-.081c-.422 0-.82.085-1.198.213-.42.09-.807.245-1.08.408-.407.322-.733.565-.977.887-.077.106-.147.213-.218.319-.306.458-.56.916-.758 1.375A14.448 14.448 0 0 0 15.289 40h9.879c-.188-.751-.411-1.514-.759-2.319" fill="#531CAD"/></g></svg>