<?xml version="1.0" encoding="UTF-8"?>
<svg width="134px" height="30px" viewBox="0 0 134 30" version="1.1" xmlns="http://www.w3.org/2000/svg" xmlns:xlink="http://www.w3.org/1999/xlink">
    <!-- Generator: Sketch 55 (78076) - https://sketchapp.com -->
    <title>white-logo</title>
    <desc>Created with Sketch.</desc>
    <g id="Page-1" stroke="none" stroke-width="1" fill="none" fill-rule="evenodd">
        <g id="white-logo" fill="#F1F8F8">
            <path d="M26.8,15 C26.8,14.2803598 26.3607415,13.6956522 25.8201156,13.6956522 C25.2782829,13.6956522 24.8390244,14.2803598 24.8390244,15 C24.8390244,15.7212465 25.2782829,16.3043478 25.8201156,16.3043478 C26.3607415,16.3043478 26.8,15.7212465 26.8,15" id="Fill-17"></path>
            <path d="M2.61463415,15 C2.61463415,15.7212465 3.05295567,16.3043478 3.59512195,16.3043478 C4.13728824,16.3043478 4.57560976,15.7212465 4.57560976,15 C4.57560976,14.2803598 4.13728824,13.6956522 3.59512195,13.6956522 C3.05295567,13.6956522 2.61463415,14.2803598 2.61463415,15" id="Fill-19"></path>
            <path d="M13.7268293,3.91304348 C13.7268293,4.63268366 14.1663583,5.2173913 14.7073171,5.2173913 C15.2494834,5.2173913 15.6878049,4.63268366 15.6878049,3.91304348 C15.6878049,3.19179696 15.2494834,2.60869565 14.7073171,2.60869565 C14.1663583,2.60869565 13.7268293,3.19179696 13.7268293,3.91304348" id="Fill-21"></path>
            <path d="M15.6878049,26.0869565 C15.6878049,25.3673163 15.2494834,24.7826087 14.7073171,24.7826087 C14.1663583,24.7826087 13.7268293,25.3673163 13.7268293,26.0869565 C13.7268293,26.808203 14.1663583,27.3913043 14.7073171,27.3913043 C15.2494834,27.3913043 15.6878049,26.808203 15.6878049,26.0869565" id="Fill-23"></path>
            <path d="M6.16992095,23.7485863 C6.55257978,24.2577176 7.17424949,24.2577176 7.55690832,23.7485863 C7.93956715,23.239455 7.93956715,22.4123174 7.55690832,21.9047922 C7.17424949,21.3940548 6.55257978,21.3940548 6.16992095,21.9047922 C5.78726212,22.4123174 5.78726212,23.239455 6.16992095,23.7485863" id="Fill-25"></path>
            <path d="M7.55686414,8.09623599 C7.93958187,7.58686948 7.93958187,6.7609566 7.55686414,6.2515901 C7.17414642,5.74222359 6.55238102,5.74222359 6.17087061,6.2515901 C5.78694557,6.7609566 5.78694557,7.58686948 6.17087061,8.09623599 C6.55238102,8.6056025 7.17414642,8.6056025 7.55686414,8.09623599" id="Fill-27"></path>
            <path d="M23.244669,23.7485863 C23.6273867,23.239455 23.6273867,22.4123174 23.244669,21.9047922 C22.8619513,21.3940548 22.2413932,21.3940548 21.8586755,21.9047922 C21.4747504,22.4123174 21.4747504,23.239455 21.8586755,23.7485863 C22.2413932,24.2577176 22.8619513,24.2577176 23.244669,23.7485863" id="Fill-29"></path>
            <path d="M29.7255137,0.35239855 C29.2662392,-0.115185185 28.5200865,-0.117911621 28.0594651,0.346945679 L14.2489055,14.276306 L7.64531917,9.28965502 L7.64666602,9.28965502 C7.08233751,8.96248272 6.36177486,9.16014932 6.0385318,9.73270083 C5.71528874,10.3052523 5.91192827,11.0345739 6.47760362,11.3617462 L13.8583201,16.7996224 C14.3189415,17.0654498 14.8980853,16.9877464 15.2738553,16.6101351 L29.7201263,2.03869908 C30.1820945,1.57384178 30.1847882,0.818619068 29.7255137,0.35239855" id="Fill-31"></path>
            <path d="M25.7931282,6.58363636 C27.6190936,8.90454545 28.717953,11.8213636 28.717953,15 C28.717953,22.5409091 22.590855,28.6540909 15.0341463,28.6540909 C7.47607095,28.6540909 1.35033969,22.5409091 1.35033969,15 C1.35033969,13.5136364 1.59635299,12.0845455 2.0378102,10.7440909 C2.18815166,10.2845455 2.36582794,9.83727273 2.56263858,9.40090909 C4.70705455,4.65545455 9.4783459,1.34863636 15.0341463,1.34863636 C18.3279911,1.34863636 21.3498545,2.51181818 23.712949,4.44681818 L24.6710341,3.49227273 C22.0619264,1.31454545 18.702478,0 15.0341463,0 C6.73119734,0 0,6.71727273 0,15 C0,23.2854545 6.73119734,30 15.0341463,30 C23.3370953,30 30.0682927,23.2854545 30.0682927,15 C30.0682927,11.4504545 28.8245588,8.19272727 26.758047,5.62363636 L25.7931282,6.58363636 Z" id="Fill-34"></path>
            <path d="M59.6615144,5.80725815 L56.613598,25.3220951 C56.4866015,26.1105734 56.0167144,26.4857364 55.2610851,26.4857364 L54.1625653,26.4857364 C53.406936,26.4857364 52.9052998,26.1105734 52.7783033,25.3538886 L50.1685249,11.3774755 L47.5587465,25.3538886 C47.4349249,26.1105734 46.9301137,26.4857364 46.1776594,26.4857364 L44.952143,26.4857364 C44.1965137,26.4857364 43.7234517,26.1105734 43.5996301,25.3220951 L40.5485388,5.80725815 C40.4247172,4.9265788 40.834281,4.45285598 41.6819827,4.45285598 L42.7201792,4.45285598 C43.5043827,4.45285598 43.9456956,4.89160598 44.040943,5.64829076 L45.7363465,20.1906277 L48.3461249,5.58788315 C48.4731214,4.83119837 48.9747576,4.45285598 49.7303869,4.45285598 L50.673336,4.45285598 C51.4257904,4.45285598 51.9274266,4.83119837 52.0544231,5.58788315 L54.6642015,20.1906277 L56.3627799,5.64829076 C56.4548524,4.89160598 56.8961653,4.45285598 57.6803688,4.45285598 L58.5312454,4.45285598 C59.3789472,4.45285598 59.7885109,4.9265788 59.6615144,5.80725815" id="Fill-1"></path>
            <path d="M62.7348796,4.56521739 L63.8942053,4.56521739 C64.7343908,4.56521739 65.1837924,5.00677583 65.1837924,5.83229814 L65.1837924,13.8155468 L69.4726463,13.8155468 L69.4726463,5.83229814 C69.4726463,5.00677583 69.9253044,4.56521739 70.7622334,4.56521739 L71.9248157,4.56521739 C72.7617446,4.56521739 73.2111462,5.00677583 73.2111462,5.83229814 L73.2111462,25.4720497 C73.2111462,26.297572 72.7617446,26.7391304 71.9248157,26.7391304 L70.7622334,26.7391304 C69.9253044,26.7391304 69.4726463,26.297572 69.4726463,25.4720497 L69.4726463,17.1080369 L65.1837924,17.1080369 L65.1837924,25.4720497 C65.1837924,26.297572 64.7343908,26.7391304 63.8942053,26.7391304 L62.7348796,26.7391304 C61.8946941,26.7391304 61.4452925,26.297572 61.4452925,25.4720497 L61.4452925,5.83229814 C61.4452925,5.00677583 61.8946941,4.56521739 62.7348796,4.56521739" id="Fill-4"></path>
            <path d="M82.0355364,23.4870007 C83.2078668,23.4870007 84.012285,23.0394303 84.012285,21.4455648 L84.012285,9.20338921 C84.012285,7.61274356 83.2078668,7.16517323 82.0355364,7.16517323 C80.8632061,7.16517323 80.0587879,7.61274356 80.0587879,9.20338921 L80.0587879,21.4455648 C80.0587879,23.0394303 80.8632061,23.4870007 82.0355364,23.4870007 M81.9108204,3.91304348 L82.1602524,3.91304348 C85.4309294,3.91304348 87.591634,5.25253455 87.591634,8.63024159 L87.591634,22.0187124 C87.591634,25.3996394 85.4309294,26.7391304 82.1602524,26.7391304 L81.9108204,26.7391304 C78.6401435,26.7391304 76.4794389,25.3996394 76.4794389,22.0187124 L76.4794389,8.63024159 C76.4794389,5.22033524 78.6401435,3.91304348 81.9108204,3.91304348" id="Fill-6"></path>
            <path d="M94.1282194,5.79557052 L94.1282194,7.64110022 C94.1282194,9.14797212 93.5839864,10.592705 92.8950106,11.7329565 C92.4955204,12.348133 92.0931354,12.5314432 91.6618019,12.285994 C91.2623117,12.0716143 91.2912603,11.5776089 91.6357481,10.8412612 C92.0091846,10.1018065 92.2928805,9.27225021 92.3797262,8.56386507 L92.0091846,8.56386507 C91.2623117,8.56386507 90.8599267,8.1319987 90.8599267,7.33351194 L90.8599267,5.79557052 C90.8599267,4.99397682 91.2623117,4.56521739 92.0091846,4.56521739 L92.9818563,4.56521739 C93.7258343,4.56521739 94.1282194,4.99397682 94.1282194,5.79557052" id="Fill-8"></path>
            <path d="M105.85954,12.1399658 L104.772513,12.1399658 C103.943533,12.1399658 103.4984,11.6923954 103.4984,10.8648733 L103.4984,9.01663324 C103.4984,7.61274356 102.698451,7.10399455 101.614649,7.10399455 C100.527622,7.10399455 99.7276728,7.61274356 99.7276728,9.01663324 L99.7276728,10.5461002 C99.7276728,11.6923954 100.111519,12.2043644 101.166291,12.8097113 L103.782253,14.2747797 C105.924052,15.4886934 107.20139,16.4739922 107.20139,18.8664005 L107.20139,22.0863309 C107.20139,25.5284366 105.059591,26.7391304 101.675936,26.7391304 L101.614649,26.7391304 C98.2277684,26.7391304 96.089195,25.5606359 96.089195,22.0863309 L96.089195,19.4717474 C96.089195,18.6442253 96.5343279,18.196655 97.3633073,18.196655 L98.4503348,18.196655 C99.2825399,18.196655 99.7276728,18.6442253 99.7276728,19.4717474 L99.7276728,21.5775819 C99.7276728,22.9460524 100.527622,23.5513993 101.64368,23.5513993 C102.762963,23.5513993 103.559687,22.9460524 103.559687,21.5775819 L103.559687,19.8227198 C103.559687,18.6732047 103.211322,18.100057 102.092038,17.4947101 L99.5018807,16.0296418 C97.3310513,14.7867486 96.089195,13.7660307 96.089195,11.4380209 L96.089195,8.5046643 C96.089195,5.18813594 98.5148469,3.91304348 101.582393,3.91304348 L101.64368,3.91304348 C104.711226,3.91304348 107.136878,5.18813594 107.136878,8.5046643 L107.136878,10.8648733 C107.136878,11.6923954 106.691745,12.1399658 105.85954,12.1399658" id="Fill-10"></path>
            <path d="M117.614376,26.7391304 L116.398161,26.7391304 C115.520163,26.7391304 115.045293,26.2943723 115.045293,25.4720497 L115.045293,5.83229814 C115.045293,5.00677583 115.520163,4.56521739 116.398161,4.56521739 L117.614376,4.56521739 C118.49579,4.56521739 118.967244,5.00677583 118.967244,5.83229814 L118.967244,25.4720497 C118.967244,26.2943723 118.49579,26.7391304 117.614376,26.7391304" id="Fill-12"></path>
            <path d="M124.311661,26.4870082 L123.50217,26.4870082 C122.692679,26.4870082 122.262833,26.0450788 122.262833,25.2279864 L122.262833,5.71314946 C122.262833,4.89287772 122.692679,4.45412772 123.50217,4.45412772 L124.807395,4.45412772 C125.522759,4.45412772 125.987118,4.80067663 126.206747,5.49059511 L130.429904,18.0808125 L130.429904,5.71314946 C130.429904,4.89287772 130.866025,4.45412772 131.672379,4.45412772 L132.481869,4.45412772 C133.288222,4.45412772 133.724343,4.89287772 133.724343,5.71314946 L133.724343,25.2279864 C133.724343,26.0450788 133.288222,26.4870082 132.481869,26.4870082 L131.36176,26.4870082 C130.649534,26.4870082 130.182037,26.1404592 129.965545,25.4473614 L125.554135,12.1640462 L125.554135,25.2279864 C125.554135,26.0450788 125.118014,26.4870082 124.311661,26.4870082" id="Fill-14"></path>
        </g>
    </g>
</svg>