<?xml version="1.0" encoding="UTF-8"?>
<svg width="143px" height="157px" viewBox="0 0 143 157" version="1.1" xmlns="http://www.w3.org/2000/svg" xmlns:xlink="http://www.w3.org/1999/xlink">
    <!-- Generator: Sketch 55 (78076) - https://sketchapp.com -->
    <title>white-logo</title>
    <desc>Created with Sketch.</desc>
    <g id="Page-1" stroke="none" stroke-width="1" fill="none" fill-rule="evenodd">
        <g id="01-Splash-Screen" transform="translate(-109.000000, -243.000000)" fill="#FFFFFF">
            <g id="white-logo" transform="translate(108.000000, 243.000000)">
                <path d="M30.2710857,124.904463 L25.6082286,154.827213 C25.4139429,156.036213 24.6950857,156.611463 23.5390857,156.611463 L21.8585143,156.611463 C20.7025143,156.611463 19.9350857,156.036213 19.7408,154.875963 L15.7482286,133.445462 L11.7556571,154.875963 C11.5662286,156.036213 10.7939429,156.611463 9.6428,156.611463 L7.76794286,156.611463 C6.61194286,156.611463 5.88822857,156.036213 5.6988,154.827213 L1.03108571,124.904463 C0.841657143,123.554088 1.46822857,122.827713 2.76508571,122.827713 L4.35337143,122.827713 C5.55308571,122.827713 6.22822857,123.500462 6.37394286,124.660713 L8.96765714,146.958963 L12.9602286,124.568088 C13.1545143,123.407837 13.9219429,122.827713 15.0779429,122.827713 L16.5205143,122.827713 C17.6716571,122.827713 18.4390857,123.407837 18.6333714,124.568088 L22.6259429,146.958963 L25.2245143,124.660713 C25.3653714,123.500462 26.0405143,122.827713 27.2402286,122.827713 L28.5419429,122.827713 C29.8388,122.827713 30.4653714,123.554088 30.2710857,124.904463" id="Fill-1"></path>
                <path d="M34.9728757,123 L36.7464711,123 C38.0318295,123 38.7193468,123.677056 38.7193468,124.942857 L38.7193468,137.183838 L45.2806532,137.183838 L45.2806532,124.942857 C45.2806532,123.677056 45.9731525,123 47.2535289,123 L49.0321063,123 C50.3124827,123 51,123.677056 51,124.942857 L51,155.057143 C51,156.322944 50.3124827,157 49.0321063,157 L47.2535289,157 C45.9731525,157 45.2806532,156.322944 45.2806532,155.057143 L45.2806532,142.232323 L38.7193468,142.232323 L38.7193468,155.057143 C38.7193468,156.322944 38.0318295,157 36.7464711,157 L34.9728757,157 C33.6875173,157 33,156.322944 33,155.057143 L33,124.942857 C33,123.677056 33.6875173,123 34.9728757,123" id="Fill-4"></path>
                <path d="M64.5,152.013401 C66.2934905,152.013401 67.5241302,151.327127 67.5241302,148.883199 L67.5241302,130.111863 C67.5241302,127.672873 66.2934905,126.986599 64.5,126.986599 C62.7065095,126.986599 61.4758698,127.672873 61.4758698,130.111863 L61.4758698,148.883199 C61.4758698,151.327127 62.7065095,152.013401 64.5,152.013401 M64.3092031,122 L64.6907969,122 C69.6944444,122 73,124.053886 73,129.233037 L73,149.762026 C73,154.946114 69.6944444,157 64.6907969,157 L64.3092031,157 C59.3055556,157 56,154.946114 56,149.762026 L56,129.233037 C56,124.004514 59.3055556,122 64.3092031,122" id="Fill-6"></path>
                <path d="M83,124.886541 L83,127.716354 C83,130.026891 82.1674048,132.242148 81.1133747,133.990533 C80.5022143,134.933804 79.8866253,135.21488 79.2267493,134.838524 C78.615589,134.509809 78.659876,133.752334 79.1868911,132.623267 C79.7581931,131.489437 80.1922055,130.21745 80.3250664,129.13126 L79.7581931,129.13126 C78.615589,129.13126 78,128.469065 78,127.244718 L78,124.886541 C78,123.657431 78.615589,123 79.7581931,123 L81.2462356,123 C82.384411,123 83,123.657431 83,124.886541" id="Fill-8"></path>
                <path d="M100.94717,134.614614 L99.28418,134.614614 C98.0159652,134.614614 97.3349782,133.92834 97.3349782,132.659472 L97.3349782,129.825504 C97.3349782,127.672873 96.1111756,126.892792 94.4531205,126.892792 C92.7901306,126.892792 91.566328,127.672873 91.566328,129.825504 L91.566328,132.170687 C91.566328,133.92834 92.1535559,134.713359 93.7671988,135.641557 L97.7692308,137.887995 C101.045864,139.74933 103,141.260121 103,144.928481 L103,149.865707 C103,155.143603 99.7233672,157 94.5468795,157 L94.4531205,157 C89.2716981,157 86,155.192975 86,149.865707 L86,145.856679 C86,144.587812 86.6809869,143.901538 87.9492017,143.901538 L89.6121916,143.901538 C90.8853411,143.901538 91.566328,144.587812 91.566328,145.856679 L91.566328,149.085626 C91.566328,151.183947 92.7901306,152.112146 94.4975327,152.112146 C96.2098694,152.112146 97.4287373,151.183947 97.4287373,149.085626 L97.4287373,146.394837 C97.4287373,144.632247 96.895791,143.753421 95.1834543,142.825222 L91.2208999,140.578784 C87.8998549,138.673015 86,137.107914 86,133.538299 L86,129.040485 C86,123.955142 89.7108853,122 94.4037736,122 L94.4975327,122 C99.1904209,122 102.901306,123.955142 102.901306,129.040485 L102.901306,132.659472 C102.901306,133.92834 102.220319,134.614614 100.94717,134.614614" id="Fill-10"></path>
                <path d="M118.930314,157 L117.069686,157 C115.726481,157 115,156.318038 115,155.057143 L115,124.942857 C115,123.677056 115.726481,123 117.069686,123 L118.930314,123 C120.278746,123 121,123.677056 121,124.942857 L121,155.057143 C121,156.318038 120.278746,157 118.930314,157" id="Fill-12"></path>
                <path d="M129.17616,156.613412 L127.93776,156.613412 C126.69936,156.613412 126.04176,155.935787 126.04176,154.682912 L126.04176,124.760162 C126.04176,123.502412 126.69936,122.829662 127.93776,122.829662 L129.93456,122.829662 C131.02896,122.829662 131.73936,123.361037 132.07536,124.418912 L138.53616,143.723912 L138.53616,124.760162 C138.53616,123.502412 139.20336,122.829662 140.43696,122.829662 L141.67536,122.829662 C142.90896,122.829662 143.57616,123.502412 143.57616,124.760162 L143.57616,154.682912 C143.57616,155.935787 142.90896,156.613412 141.67536,156.613412 L139.96176,156.613412 C138.87216,156.613412 138.15696,156.082037 137.82576,155.019287 L131.07696,134.651537 L131.07696,154.682912 C131.07696,155.935787 130.40976,156.613412 129.17616,156.613412" id="Fill-14"></path>
                <path d="M116,54 C116,51.7931034 114.208,50 112.002462,50 C109.792,50 108,51.7931034 108,54 C108,56.2118227 109.792,58 112.002462,58 C114.208,58 116,56.2118227 116,54" id="Fill-17"></path>
                <path d="M28,54 C28,56.2118227 29.7881773,58 32,58 C34.2118227,58 36,56.2118227 36,54 C36,51.7931034 34.2118227,50 32,50 C29.7881773,50 28,51.7931034 28,54" id="Fill-19"></path>
                <path d="M68,14 C68,16.2068966 69.7931034,18 72,18 C74.2118227,18 76,16.2068966 76,14 C76,11.7881773 74.2118227,10 72,10 C69.7931034,10 68,11.7881773 68,14" id="Fill-21"></path>
                <path d="M76,94 C76,91.7931034 74.2118227,90 72,90 C69.7931034,90 68,91.7931034 68,94 C68,96.2118227 69.7931034,98 72,98 C74.2118227,98 76,96.2118227 76,94" id="Fill-23"></path>
                <path d="M40.1708218,84.828998 C41.7319175,86.390334 44.2680825,86.390334 45.8291782,84.828998 C47.3902739,83.267662 47.3902739,80.7311067 45.8291782,79.174696 C44.2680825,77.6084347 41.7319175,77.6084347 40.1708218,79.174696 C38.6097261,80.7311067 38.6097261,83.267662 40.1708218,84.828998" id="Fill-25"></path>
                <path d="M45.828998,28.828457 C47.390334,27.2663998 47.390334,24.7336002 45.828998,23.171543 C44.267662,21.6094857 41.7311067,21.6094857 40.174696,23.171543 C38.6084347,24.7336002 38.6084347,27.2663998 40.174696,28.828457 C41.7311067,30.3905143 44.267662,30.3905143 45.828998,28.828457" id="Fill-27"></path>
                <path d="M102.828998,84.828998 C104.390334,83.267662 104.390334,80.7311067 102.828998,79.174696 C101.267662,77.6084347 98.736032,77.6084347 97.174696,79.174696 C95.6084347,80.7311067 95.6084347,83.267662 97.174696,84.828998 C98.736032,86.390334 101.267662,86.390334 102.828998,84.828998" id="Fill-29"></path>
                <path d="M126.717528,1.25559539 C125.06637,-0.410404605 122.383843,-0.420118891 120.727843,1.23616682 L71.0768959,50.8664525 L47.3360538,33.099024 L47.3408959,33.099024 C45.3120538,31.9333097 42.7215275,32.6375954 41.5594222,34.6775954 C40.397317,36.7175954 41.1042644,39.3161668 43.1379486,40.4818811 L69.6726854,59.857024 C71.3286854,60.8041668 73.4107907,60.5273097 74.761738,59.1818811 L126.698159,7.26388111 C128.359001,5.60759539 128.368685,2.91673825 126.717528,1.25559539" id="Fill-31"></path>
                <path d="M110.786545,24.4816364 C117.284364,32.7595455 121.194727,43.1628636 121.194727,54.5 C121.194727,81.3959091 99.3910455,103.199591 72.5,103.199591 C45.6040909,103.199591 23.8052727,81.3959091 23.8052727,54.5 C23.8052727,49.1986364 24.6807273,44.1015455 26.2516818,39.3205909 C26.7866818,37.6815455 27.4189545,36.0862727 28.1193182,34.5299091 C35.7503636,17.6044545 52.7293182,5.81013636 72.5,5.81013636 C84.2213636,5.81013636 94.9748636,9.95881818 103.384091,16.8603182 L106.7935,13.4557727 C97.5088182,5.68854545 85.554,1 72.5,1 C42.9534091,1 19,24.9582727 19,54.5 C19,84.0514545 42.9534091,108 72.5,108 C102.046591,108 126,84.0514545 126,54.5 C126,41.8399545 121.574091,30.2207273 114.220273,21.0576364 L110.786545,24.4816364 Z" id="Fill-34"></path>
            </g>
        </g>
    </g>
</svg>