<?xml version="1.0" encoding="UTF-8"?>
<svg width="74px" height="80px" viewBox="0 0 74 80" version="1.1" xmlns="http://www.w3.org/2000/svg" xmlns:xlink="http://www.w3.org/1999/xlink">
    <!-- Generator: Sketch 55 (78076) - https://sketchapp.com -->
    <title>logo-fullcolor</title>
    <desc>Created with Sketch.</desc>
    <g id="Page-1" stroke="none" stroke-width="1" fill="none" fill-rule="evenodd">
        <g id="04-Enter-your-pin" transform="translate(-143.000000, -45.000000)" fill="#266EF5">
            <g id="logo-fullcolor" transform="translate(143.000000, 45.000000)">
                <path d="M15.2200317,63.5534117 L12.7956707,79.0745001 C12.6946557,79.7016148 12.3209,80 11.7198605,80 L10.8460804,80 C10.2450409,80 9.84603152,79.7016148 9.74501648,79.099787 L7.66915741,67.9836735 L5.59329833,79.099787 C5.49480866,79.7016148 5.09327388,80 4.49475977,80 L3.51996463,80 C2.91892514,80 2.54264411,79.7016148 2.44415445,79.0745001 L0.0172681089,63.5534117 C-0.0812215553,62.852965 0.244551949,62.4761905 0.918827343,62.4761905 L1.7446253,62.4761905 C2.36839317,62.4761905 2.71942043,62.8251495 2.79518171,63.4269773 L4.1437325,74.9931973 L6.21959158,63.3789322 C6.32060662,62.7771044 6.71961603,62.4761905 7.32065552,62.4761905 L8.07069219,62.4761905 C8.6692063,62.4761905 9.06821571,62.7771044 9.16923075,63.3789322 L11.2450898,74.9931973 L12.596166,63.4269773 C12.6694019,62.8251495 13.0204292,62.4761905 13.644197,62.4761905 L14.3209978,62.4761905 C14.9952732,62.4761905 15.3210467,62.852965 15.2200317,63.5534117" id="Fill-1"></path>
                <path d="M17.7640004,62.4761905 L18.6648742,62.4761905 C19.3177547,62.4761905 19.6669698,62.8251495 19.6669698,63.477551 L19.6669698,69.7866282 L22.9996969,69.7866282 L22.9996969,63.477551 C22.9996969,62.8251495 23.3514425,62.4761905 24.0017925,62.4761905 L24.9051968,62.4761905 C25.5555468,62.4761905 25.9047619,62.8251495 25.9047619,63.477551 L25.9047619,78.9986395 C25.9047619,79.651041 25.5555468,80 24.9051968,80 L24.0017925,80 C23.3514425,80 22.9996969,79.651041 22.9996969,78.9986395 L22.9996969,72.3886484 L19.6669698,72.3886484 L19.6669698,78.9986395 C19.6669698,79.651041 19.3177547,80 18.6648742,80 L17.7640004,80 C17.1111199,80 16.7619048,79.651041 16.7619048,78.9986395 L16.7619048,63.477551 C16.7619048,62.8251495 17.1111199,62.4761905 17.7640004,62.4761905" id="Fill-4"></path>
                <path d="M33.1428571,77.5033083 C34.0270429,77.5033083 34.6337449,77.1597042 34.6337449,75.936078 L34.6337449,66.5376405 C34.6337449,65.3164863 34.0270429,64.9728822 33.1428571,64.9728822 C32.2586714,64.9728822 31.6519694,65.3164863 31.6519694,66.5376405 L31.6519694,75.936078 C31.6519694,77.1597042 32.2586714,77.5033083 33.1428571,77.5033083 M33.0487948,62.4761905 L33.2369195,62.4761905 C35.7037037,62.4761905 37.3333333,63.5045308 37.3333333,66.0976295 L37.3333333,76.376089 C37.3333333,78.9716596 35.7037037,80 33.2369195,80 L33.0487948,80 C30.5820106,80 28.952381,78.9716596 28.952381,76.376089 L28.952381,66.0976295 C28.952381,63.4798111 30.5820106,62.4761905 33.0487948,62.4761905" id="Fill-6"></path>
                <path d="M41.9047619,63.4344338 L41.9047619,64.8717987 C41.9047619,66.0454047 41.5241469,67.1706147 41.0423046,68.0586836 C40.762917,68.5378052 40.4815049,68.6805738 40.1798473,68.4894091 C39.9004597,68.3224424 39.9207052,67.9376933 40.1616264,67.3641992 C40.422793,66.7882853 40.6211987,66.142197 40.6819351,65.5904812 L40.422793,65.5904812 C39.9004597,65.5904812 39.6190476,65.2541281 39.6190476,64.6322379 L39.6190476,63.4344338 C39.6190476,62.8101237 39.9004597,62.4761905 40.422793,62.4761905 L41.103041,62.4761905 C41.6233498,62.4761905 41.9047619,62.8101237 41.9047619,63.4344338" id="Fill-8"></path>
                <path d="M51.559389,68.7920789 L50.7395397,68.7920789 C50.1143134,68.7920789 49.7785887,68.4484748 49.7785887,67.813178 L49.7785887,66.3942661 C49.7785887,65.3164863 49.1752574,64.9259147 48.3578409,64.9259147 C47.5379916,64.9259147 46.9346603,65.3164863 46.9346603,66.3942661 L46.9346603,67.5684528 C46.9346603,68.4484748 47.224162,68.8415184 48.0196835,69.3062491 L49.992674,70.4309964 C51.6080448,71.3629298 52.5714286,72.1193533 52.5714286,73.9560285 L52.5714286,76.4280005 C52.5714286,79.0705385 50.9560578,80 48.4040639,80 L48.3578409,80 C45.8034142,80 44.1904762,79.0952582 44.1904762,76.4280005 L44.1904762,74.4207592 C44.1904762,73.7854624 44.5262008,73.4418583 45.1514272,73.4418583 L45.9712765,73.4418583 C46.5989357,73.4418583 46.9346603,73.7854624 46.9346603,74.4207592 L46.9346603,76.0374289 C46.9346603,77.088017 47.5379916,77.5527477 48.379736,77.5527477 C49.2239132,77.5527477 49.8248117,77.088017 49.8248117,76.0374289 L49.8248117,74.6902041 C49.8248117,73.8077101 49.5620706,73.3676991 48.7178934,72.9029684 L46.7643652,71.7782211 C45.1270993,70.8240399 44.1904762,70.0404248 44.1904762,68.253189 L44.1904762,66.0012226 C44.1904762,63.4550914 46.0199323,62.4761905 48.333513,62.4761905 L48.379736,62.4761905 C50.6933167,62.4761905 52.5227728,63.4550914 52.5227728,66.0012226 L52.5227728,67.813178 C52.5227728,68.4484748 52.1870482,68.7920789 51.559389,68.7920789" id="Fill-10"></path>
                <path d="M60.6630164,80 L59.717936,80 C59.0356728,80 58.6666667,79.6485123 58.6666667,78.9986395 L58.6666667,63.477551 C58.6666667,62.8251495 59.0356728,62.4761905 59.717936,62.4761905 L60.6630164,62.4761905 C61.3479343,62.4761905 61.7142857,62.8251495 61.7142857,63.477551 L61.7142857,78.9986395 C61.7142857,79.6485123 61.3479343,80 60.6630164,80" id="Fill-12"></path>
                <path d="M65.6343514,80 L64.9886199,80 C64.3428884,80 64,79.6485123 64,78.9986395 L64,63.477551 C64,62.8251495 64.3428884,62.4761905 64.9886199,62.4761905 L66.0297994,62.4761905 C66.6004458,62.4761905 66.9708654,62.7518175 67.1460639,63.3005428 L70.5148801,73.3141483 L70.5148801,63.477551 C70.5148801,62.8251495 70.8627742,62.4761905 71.5060029,62.4761905 L72.1517344,62.4761905 C72.794963,62.4761905 73.1428571,62.8251495 73.1428571,63.477551 L73.1428571,78.9986395 C73.1428571,79.6485123 72.794963,80 72.1517344,80 L71.2582222,80 C70.6900786,80 70.3171562,79.724373 70.1444605,79.1731189 L66.6254742,68.6082595 L66.6254742,78.9986395 C66.6254742,79.6485123 66.2775801,80 65.6343514,80" id="Fill-14"></path>
                <path d="M58.6666667,27.8095238 C58.6666667,26.7586207 57.8133333,25.9047619 56.7630769,25.9047619 C55.7104762,25.9047619 54.8571429,26.7586207 54.8571429,27.8095238 C54.8571429,28.8627727 55.7104762,29.7142857 56.7630769,29.7142857 C57.8133333,29.7142857 58.6666667,28.8627727 58.6666667,27.8095238" id="Fill-17"></path>
                <path d="M14.4761905,27.8095238 C14.4761905,28.8627727 15.3277035,29.7142857 16.3809524,29.7142857 C17.4342013,29.7142857 18.2857143,28.8627727 18.2857143,27.8095238 C18.2857143,26.7586207 17.4342013,25.9047619 16.3809524,25.9047619 C15.3277035,25.9047619 14.4761905,26.7586207 14.4761905,27.8095238" id="Fill-19"></path>
                <path d="M35.047619,7.23809524 C35.047619,8.28899836 35.9014778,9.14285714 36.952381,9.14285714 C38.0056298,9.14285714 38.8571429,8.28899836 38.8571429,7.23809524 C38.8571429,6.18484635 38.0056298,5.33333333 36.952381,5.33333333 C35.9014778,5.33333333 35.047619,6.18484635 35.047619,7.23809524" id="Fill-21"></path>
                <path d="M38.8571429,47.6190476 C38.8571429,46.5681445 38.0056298,45.7142857 36.952381,45.7142857 C35.9014778,45.7142857 35.047619,46.5681445 35.047619,47.6190476 C35.047619,48.6722965 35.9014778,49.5238095 36.952381,49.5238095 C38.0056298,49.5238095 38.8571429,48.6722965 38.8571429,47.6190476" id="Fill-23"></path>
                <path d="M20.367058,42.8709514 C21.1104369,43.6144448 22.3181345,43.6144448 23.0615134,42.8709514 C23.8048923,42.1274581 23.8048923,40.9195746 23.0615134,40.1784267 C22.3181345,39.4325879 21.1104369,39.4325879 20.367058,40.1784267 C19.6236791,40.9195746 19.6236791,42.1274581 20.367058,42.8709514" id="Fill-25"></path>
                <path d="M23.0614276,14.6802176 C23.804921,13.9363808 23.804921,12.7302858 23.0614276,11.986449 C22.3179343,11.2426122 21.1100508,11.2426122 20.3689029,11.986449 C19.6230641,12.7302858 19.6230641,13.9363808 20.3689029,14.6802176 C21.1100508,15.4240544 22.3179343,15.4240544 23.0614276,14.6802176" id="Fill-27"></path>
                <path d="M52.0138086,42.8709514 C52.7573019,42.1274581 52.7573019,40.9195746 52.0138086,40.1784267 C51.2703152,39.4325879 50.0647771,39.4325879 49.3212838,40.1784267 C48.5754451,40.9195746 48.5754451,42.1274581 49.3212838,42.8709514 C50.0647771,43.6144448 51.2703152,43.6144448 52.0138086,42.8709514" id="Fill-29"></path>
                <path d="M64.1355935,0.633370776 C63.2964266,-0.207023922 61.9330879,-0.211924183 61.0914601,0.623570255 L35.8573904,25.6590018 L23.7915972,16.6964251 L23.7940581,16.6964251 C22.762941,16.1083939 21.4463594,16.4636628 20.8557434,17.4927175 C20.2651274,18.5217722 20.6244188,19.8325919 21.6579968,20.4206232 L35.1437294,30.1941931 C35.9853572,30.6719685 37.0435443,30.532311 37.7301354,29.8536249 L64.1257499,3.66418198 C64.9698387,2.82868754 64.9747605,1.47131534 64.1355935,0.633370776" id="Fill-31"></path>
                <path d="M56.3086407,12.0386494 C59.593697,16.2825974 61.570632,21.6162078 61.570632,27.4285714 C61.570632,41.2176623 50.5474978,52.3960519 36.952381,52.3960519 C23.3548052,52.3960519 12.3341299,41.2176623 12.3341299,27.4285714 C12.3341299,24.7106494 12.7767273,22.0974545 13.5709437,19.6463377 C13.8414199,18.806026 14.1610736,17.9881558 14.5151515,17.1902338 C18.3731255,8.51283117 26.9570563,2.46607792 36.952381,2.46607792 C42.8782684,2.46607792 48.3148398,4.59303896 52.5662338,8.13132468 L54.2899048,6.38587013 C49.5959134,2.40374026 43.552,0 36.952381,0 C22.0147186,0 9.9047619,12.283013 9.9047619,27.4285714 C9.9047619,42.5791169 22.0147186,54.8571429 36.952381,54.8571429 C51.8900433,54.8571429 64,42.5791169 64,27.4285714 C64,20.937974 61.7624242,14.980987 58.0446061,10.2832208 L56.3086407,12.0386494 Z" id="Fill-34"></path>
            </g>
        </g>
    </g>
</svg>