<?xml version="1.0" encoding="UTF-8"?>
<svg width="178px" height="40px" viewBox="0 0 178 40" version="1.1" xmlns="http://www.w3.org/2000/svg" xmlns:xlink="http://www.w3.org/1999/xlink">
    <!-- Generator: Sketch 55 (78076) - https://sketchapp.com -->
    <title>white-logo</title>
    <desc>Created with Sketch.</desc>
    <g id="Page-1" stroke="none" stroke-width="1" fill="none" fill-rule="evenodd">
        <g id="white-logo" fill="#266EF5">
            <path d="M35.6,20 C35.6,19.0404798 35.0165073,18.2608696 34.2983625,18.2608696 C33.5786146,18.2608696 32.995122,19.0404798 32.995122,20 C32.995122,20.961662 33.5786146,21.7391304 34.2983625,21.7391304 C35.0165073,21.7391304 35.6,20.961662 35.6,20" id="Fill-17"></path>
            <path d="M3.47317073,20 C3.47317073,20.961662 4.05541872,21.7391304 4.77560976,21.7391304 C5.49580079,21.7391304 6.07804878,20.961662 6.07804878,20 C6.07804878,19.0404798 5.49580079,18.2608696 4.77560976,18.2608696 C4.05541872,18.2608696 3.47317073,19.0404798 3.47317073,20" id="Fill-19"></path>
            <path d="M18.2341463,5.2173913 C18.2341463,6.17691154 18.8179983,6.95652174 19.5365854,6.95652174 C20.2567764,6.95652174 20.8390244,6.17691154 20.8390244,5.2173913 C20.8390244,4.25572928 20.2567764,3.47826087 19.5365854,3.47826087 C18.8179983,3.47826087 18.2341463,4.25572928 18.2341463,5.2173913" id="Fill-21"></path>
            <path d="M20.8390244,34.7826087 C20.8390244,33.8230885 20.2567764,33.0434783 19.5365854,33.0434783 C18.8179983,33.0434783 18.2341463,33.8230885 18.2341463,34.7826087 C18.2341463,35.7442707 18.8179983,36.5217391 19.5365854,36.5217391 C20.2567764,36.5217391 20.8390244,35.7442707 20.8390244,34.7826087" id="Fill-23"></path>
            <path d="M8.19586514,31.6647817 C8.70417314,32.3436235 9.5299732,32.3436235 10.0382812,31.6647817 C10.5465892,30.98594 10.5465892,29.8830899 10.0382812,29.2063896 C9.5299732,28.5254064 8.70417314,28.5254064 8.19586514,29.2063896 C7.68755715,29.8830899 7.68755715,30.98594 8.19586514,31.6647817" id="Fill-25"></path>
            <path d="M10.0382225,10.7949813 C10.5466088,10.115826 10.5466088,9.0146088 10.0382225,8.33545346 C9.52983628,7.65629812 8.70390912,7.65629812 8.19712663,8.33545346 C7.68713665,9.0146088 7.68713665,10.115826 8.19712663,10.7949813 C8.70390912,11.4741367 9.52983628,11.4741367 10.0382225,10.7949813" id="Fill-27"></path>
            <path d="M30.8772469,31.6647817 C31.3856331,30.98594 31.3856331,29.8830899 30.8772469,29.2063896 C30.3688607,28.5254064 29.5445373,28.5254064 29.036151,29.2063896 C28.526161,29.8830899 28.526161,30.98594 29.036151,31.6647817 C29.5445373,32.3436235 30.3688607,32.3436235 30.8772469,31.6647817" id="Fill-29"></path>
            <path d="M39.4861302,0.469864734 C38.8760491,-0.153580247 37.884891,-0.157215494 37.2730208,0.462594238 L18.9276506,19.0350747 L10.1557225,12.3862067 L10.1575116,12.3862067 C9.40788117,11.949977 8.45071586,12.2135324 8.02133329,12.9769344 C7.59195072,13.7403365 7.85315845,14.7127652 8.60457795,15.1489949 L18.4088133,22.3994965 C19.0206834,22.7539331 19.7899939,22.6503286 20.2891511,22.1468468 L39.4789738,2.71826544 C40.092633,2.0984557 40.0962112,1.09149209 39.4861302,0.469864734" id="Fill-31"></path>
            <path d="M34.2625135,8.77818182 C36.6880497,11.8727273 38.1477286,15.7618182 38.1477286,20 C38.1477286,30.0545455 30.0087477,38.2054545 19.9707317,38.2054545 C9.93090022,38.2054545 1.79373481,30.0545455 1.79373481,20 C1.79373481,18.0181818 2.1205286,16.1127273 2.70694191,14.3254545 C2.90664922,13.7127273 3.14266696,13.1163636 3.404102,12.5345455 C6.25265455,6.20727273 12.5906386,1.79818182 19.9707317,1.79818182 C24.3461375,1.79818182 28.3602545,3.34909091 31.4992905,5.92909091 L32.7719707,4.65636364 C29.306141,1.75272727 24.8435902,0 19.9707317,0 C8.94144124,0 0,8.95636364 0,20 C0,31.0472727 8.94144124,40 19.9707317,40 C31.0000222,40 39.9414634,31.0472727 39.9414634,20 C39.9414634,15.2672727 38.2893392,10.9236364 35.5442714,7.49818182 L34.2625135,8.77818182 Z" id="Fill-34"></path>
            <path d="M79.2518624,7.74301087 L75.2031377,33.7627935 C75.0344408,34.8140978 74.4102624,35.3143152 73.4065161,35.3143152 L71.9472882,35.3143152 C70.9435419,35.3143152 70.2771893,34.8140978 70.1084924,33.8051848 L66.6417718,15.1699674 L63.1750513,33.8051848 C63.0105718,34.8140978 62.3400018,35.3143152 61.3404729,35.3143152 L59.7125481,35.3143152 C58.7088018,35.3143152 58.080406,34.8140978 57.9159265,33.7627935 L53.8629844,7.74301087 C53.6985049,6.56877174 54.2425523,5.9371413 55.3686039,5.9371413 L56.7477008,5.9371413 C57.7894039,5.9371413 58.3756255,6.5221413 58.5021481,7.53105435 L60.7542513,26.920837 L64.2209718,7.45051087 C64.3896687,6.44159783 65.0560213,5.9371413 66.0597677,5.9371413 L67.3123419,5.9371413 C68.3118708,5.9371413 68.9782234,6.44159783 69.1469203,7.45051087 L72.6136408,26.920837 L74.8699614,7.53105435 C74.9922666,6.5221413 75.5784882,5.9371413 76.6201914,5.9371413 L77.7504603,5.9371413 C78.8765119,5.9371413 79.4205593,6.56877174 79.2518624,7.74301087" id="Fill-1"></path>
            <path d="M83.3343923,6.08695652 L84.8743922,6.08695652 C85.9904595,6.08695652 86.5874257,6.67570111 86.5874257,7.77639752 L86.5874257,18.420729 L92.28456,18.420729 L92.28456,7.77639752 C92.28456,6.67570111 92.8858521,6.08695652 93.9975936,6.08695652 L95.5419193,6.08695652 C96.6536608,6.08695652 97.250627,6.67570111 97.250627,7.77639752 L97.250627,33.9627329 C97.250627,35.0634293 96.6536608,35.6521739 95.5419193,35.6521739 L93.9975936,35.6521739 C92.8858521,35.6521739 92.28456,35.0634293 92.28456,33.9627329 L92.28456,22.8107159 L86.5874257,22.8107159 L86.5874257,33.9627329 C86.5874257,35.0634293 85.9904595,35.6521739 84.8743922,35.6521739 L83.3343923,35.6521739 C82.218325,35.6521739 81.6213587,35.0634293 81.6213587,33.9627329 L81.6213587,7.77639752 C81.6213587,6.67570111 82.218325,6.08695652 83.3343923,6.08695652" id="Fill-4"></path>
            <path d="M108.972578,31.3160009 C110.529853,31.3160009 111.598408,30.7192405 111.598408,28.5940864 L111.598408,12.2711856 C111.598408,10.1503248 110.529853,9.55356431 108.972578,9.55356431 C107.415304,9.55356431 106.346748,10.1503248 106.346748,12.2711856 L106.346748,28.5940864 C106.346748,30.7192405 107.415304,31.3160009 108.972578,31.3160009 M108.806911,5.2173913 L109.138246,5.2173913 C113.482876,5.2173913 116.353066,7.00337939 116.353066,11.5069888 L116.353066,29.3582832 C116.353066,33.8661858 113.482876,35.6521739 109.138246,35.6521739 L108.806911,35.6521739 C104.46228,35.6521739 101.59209,33.8661858 101.59209,29.3582832 L101.59209,11.5069888 C101.59209,6.96044699 104.46228,5.2173913 108.806911,5.2173913" id="Fill-6"></path>
            <path d="M125.035993,7.72742737 L125.035993,10.1881336 C125.035993,12.1972962 124.313057,14.1236066 123.39785,15.643942 C122.867184,16.4641774 122.332672,16.708591 121.759707,16.3813253 C121.229041,16.0954857 121.267495,15.4368118 121.725098,14.4550149 C122.221156,13.4690753 122.598005,12.3630003 122.713368,11.4184868 L122.221156,11.4184868 C121.229041,11.4184868 120.694529,10.8426649 120.694529,9.77801592 L120.694529,7.72742737 C120.694529,6.65863576 121.229041,6.08695652 122.221156,6.08695652 L123.513212,6.08695652 C124.501481,6.08695652 125.035993,6.65863576 125.035993,7.72742737" id="Fill-8"></path>
            <path d="M140.619389,16.186621 L139.175427,16.186621 C138.074246,16.186621 137.48295,15.5898606 137.48295,14.4864978 L137.48295,12.0221777 C137.48295,10.1503248 136.420331,9.47199274 134.980654,9.47199274 C133.536692,9.47199274 132.474073,10.1503248 132.474073,12.0221777 L132.474073,14.0614669 C132.474073,15.5898606 132.983958,16.2724858 134.385073,17.0796151 L137.860008,19.0330396 C140.705084,20.6515913 142.401847,21.9653229 142.401847,25.1552006 L142.401847,29.4484412 C142.401847,34.0379154 139.55677,35.6521739 135.062064,35.6521739 L134.980654,35.6521739 C130.481662,35.6521739 127.640871,34.0808479 127.640871,29.4484412 L127.640871,25.9623299 C127.640871,24.858967 128.232167,24.2622066 129.333349,24.2622066 L130.77731,24.2622066 C131.882777,24.2622066 132.474073,24.858967 132.474073,25.9623299 L132.474073,28.7701092 C132.474073,30.5947365 133.536692,31.4018657 135.019216,31.4018657 C136.506026,31.4018657 137.56436,30.5947365 137.56436,28.7701092 L137.56436,26.4302931 C137.56436,24.8976062 137.101607,24.1334094 135.614797,23.3262802 L132.17414,21.3728557 C129.290501,19.7156648 127.640871,18.3547075 127.640871,15.2506946 L127.640871,11.3395524 C127.640871,6.91751458 130.863006,5.2173913 134.937806,5.2173913 L135.019216,5.2173913 C139.094017,5.2173913 142.316151,6.91751458 142.316151,11.3395524 L142.316151,14.4864978 C142.316151,15.5898606 141.724855,16.186621 140.619389,16.186621" id="Fill-10"></path>
            <path d="M156.234021,35.6521739 L154.618452,35.6521739 C153.452157,35.6521739 152.821359,35.0591631 152.821359,33.9627329 L152.821359,7.77639752 C152.821359,6.67570111 153.452157,6.08695652 154.618452,6.08695652 L156.234021,6.08695652 C157.404855,6.08695652 158.031115,6.67570111 158.031115,7.77639752 L158.031115,33.9627329 C158.031115,35.0591631 157.404855,35.6521739 156.234021,35.6521739" id="Fill-12"></path>
            <path d="M165.130415,35.3160109 L164.055121,35.3160109 C162.979827,35.3160109 162.408838,34.7267717 162.408838,33.6373152 L162.408838,7.61753261 C162.408838,6.52383696 162.979827,5.93883696 164.055121,5.93883696 L165.788928,5.93883696 C166.739187,5.93883696 167.356023,6.40090217 167.647769,7.32079348 L173.257634,24.10775 L173.257634,7.61753261 C173.257634,6.52383696 173.836959,5.93883696 174.908085,5.93883696 L175.983379,5.93883696 C177.054504,5.93883696 177.633829,6.52383696 177.633829,7.61753261 L177.633829,33.6373152 C177.633829,34.7267717 177.054504,35.3160109 175.983379,35.3160109 L174.495472,35.3160109 C173.549381,35.3160109 172.928378,34.8539457 172.640799,33.9298152 L166.780865,16.2187283 L166.780865,33.6373152 C166.780865,34.7267717 166.201541,35.3160109 165.130415,35.3160109" id="Fill-14"></path>
        </g>
    </g>
</svg>